<svg width="16" height="16" viewBox="0 0 16 16" fill="none" xmlns="http://www.w3.org/2000/svg">
<path fill-rule="evenodd" clip-rule="evenodd" d="M7.84334 0.870695C7.96261 0.679143 7.95701 0.436343 7.82903 0.25035C7.70106 0.0643582 7.47448 -0.0302513 7.25016 0.0086273C5.25303 0.354755 3.45794 1.42243 2.21456 3.00366C0.97117 4.58491 0.368539 6.56647 0.524053 8.56235C0.679568 10.5582 1.5821 12.4255 3.05581 13.8004C4.52953 15.1753 6.46892 15.9594 8.49615 15.9999L8.5064 16C9.89472 16.0035 11.2604 15.6528 12.471 14.9818C13.6817 14.3109 14.6961 13.3425 15.4161 12.1706C15.5333 11.9798 15.5273 11.7391 15.4007 11.5542C15.2739 11.3693 15.0499 11.2741 14.8268 11.3105C14.4743 11.368 14.118 11.3998 13.7608 11.4057C12.5208 11.3971 11.3054 11.0637 10.2387 10.4394C9.17013 9.81416 8.28926 8.91956 7.68639 7.84739C7.08353 6.77522 6.78033 5.56405 6.80792 4.33806C6.83549 3.11207 7.19285 1.91539 7.84334 0.870695Z" fill="black"/>
</svg>
