<svg width="16" height="16" viewBox="0 0 16 16" fill="none" xmlns="http://www.w3.org/2000/svg">
<path fill-rule="evenodd" clip-rule="evenodd" d="M8 0C8.47338 0 8.85714 0.383755 8.85714 0.857143V2C8.85714 2.47338 8.47338 2.85714 8 2.85714C7.52662 2.85714 7.14286 2.47338 7.14286 2V0.857143C7.14286 0.383755 7.52662 0 8 0ZM11.7143 8C11.7143 10.0513 10.0513 11.7143 8 11.7143C5.94865 11.7143 4.28571 10.0513 4.28571 8C4.28571 5.94865 5.94865 4.28571 8 4.28571C10.0513 4.28571 11.7143 5.94865 11.7143 8ZM8.85714 14C8.85714 13.5266 8.47338 13.1429 8 13.1429C7.52662 13.1429 7.14286 13.5266 7.14286 14V15.1429C7.14286 15.6162 7.52662 16 8 16C8.47338 16 8.85714 15.6162 8.85714 15.1429V14ZM13.1429 8C13.1429 7.52662 13.5266 7.14286 14 7.14286H15.1429C15.6162 7.14286 16 7.52662 16 8C16 8.47338 15.6162 8.85714 15.1429 8.85714H14C13.5266 8.85714 13.1429 8.47338 13.1429 8ZM0.857143 7.14286C0.383755 7.14286 0 7.52662 0 8C0 8.47338 0.383755 8.85714 0.857143 8.85714H2C2.47338 8.85714 2.85714 8.47338 2.85714 8C2.85714 7.52662 2.47338 7.14286 2 7.14286H0.857143ZM2.34313 2.34313C2.67786 2.00839 3.22057 2.00839 3.55531 2.34313L4.53893 3.32674C4.87366 3.66147 4.87366 4.20418 4.53893 4.53893C4.20418 4.87366 3.66147 4.87366 3.32674 4.53893L2.34313 3.55531C2.00839 3.22057 2.00839 2.67786 2.34313 2.34313ZM12.6733 11.4609C12.3385 11.1261 11.7958 11.1261 11.461 11.4609C11.1263 11.7957 11.1263 12.3383 11.461 12.673L12.4447 13.6567C12.7794 13.9914 13.3222 13.9914 13.6569 13.6567C13.9917 13.3219 13.9917 12.7792 13.6569 12.4445L12.6733 11.4609ZM13.6569 2.34313C13.9917 2.67786 13.9917 3.22057 13.6569 3.55531L12.6733 4.53893C12.3385 4.87366 11.7958 4.87366 11.461 4.53893C11.1263 4.20418 11.1263 3.66147 11.461 3.32674L12.4447 2.34313C12.7794 2.00839 13.3222 2.00839 13.6569 2.34313ZM4.53893 12.673C4.87366 12.3383 4.87366 11.7957 4.53893 11.4609C4.20418 11.1261 3.66147 11.1261 3.32674 11.4609L2.34313 12.4445C2.00839 12.7792 2.00839 13.3219 2.34313 13.6567C2.67786 13.9914 3.22057 13.9914 3.55531 13.6567L4.53893 12.673Z" fill="black"/>
</svg>
