<svg width="16" height="16" viewBox="0 0 16 16" fill="#A05C1C" class="icon-consistent" xmlns="http://www.w3.org/2000/svg">
<path fill-rule="evenodd" clip-rule="evenodd" d="M14.3522 12.5946C14.5651 12.5236 14.7071 12.2397 14.7071 12.0268V4.57453C14.7071 4.14869 14.4231 3.72284 14.0683 3.58089L7.89352 0.741932C7.60965 0.670959 7.39671 0.670957 7.18384 0.812905C6.9709 0.883879 6.82896 1.16777 6.82896 1.3807V1.93959L11.6648 4.16298C12.3775 4.46153 12.8521 5.23179 12.8521 5.994V12.3022L13.6425 12.6656C13.9263 12.7366 14.1393 12.7366 14.3522 12.5946ZM9.17109 14.6193C9.17109 14.8322 9.02915 15.1161 8.81621 15.1871C8.60328 15.3291 8.3904 15.3291 8.10646 15.2581L1.93174 12.4191C1.57687 12.2771 1.29297 11.8513 1.29297 11.4255V3.9732C1.29297 3.76028 1.43492 3.47638 1.64784 3.40541C1.86076 3.26346 2.07369 3.26346 2.35758 3.33443L8.53234 6.17339C8.88721 6.31534 9.17109 6.74119 9.17109 7.16706V14.6193ZM11.9391 13.4462C11.9391 13.6592 11.7971 13.9431 11.5842 14.0141C11.3713 14.156 11.1583 14.156 10.8745 14.0851L10.0841 13.7217V7.16706C10.0841 6.40482 9.60952 5.63456 8.89684 5.33602L4.06097 3.11264V2.80017C4.06097 2.58725 4.20291 2.30335 4.41584 2.23237C4.62876 2.09042 4.84168 2.09043 5.12557 2.1614L11.3003 5.00036C11.6552 5.14231 11.9391 5.56816 11.9391 5.994V13.4462Z"/>
</svg>
