<svg width="16" height="16" viewBox="0 0 16 16" fill="#662F9D" class="icon-details" xmlns="http://www.w3.org/2000/svg">
<g clip-path="url(#clip0_8303_1783)">
<path fill-rule="evenodd" clip-rule="evenodd" d="M11.5375 1.21437C11.5638 1.11413 11.6225 1.02542 11.7046 0.962108C11.7866 0.898797 11.8873 0.864457 11.9909 0.864457C12.0946 0.864457 12.1953 0.898797 12.2773 0.962108C12.3594 1.02542 12.4181 1.11413 12.4444 1.21437C12.6506 2.00312 12.8775 2.4875 13.2163 2.84562C13.5575 3.20625 14.0563 3.4875 14.9069 3.77312C15 3.80438 15.0809 3.86409 15.1383 3.94383C15.1956 4.02356 15.2264 4.11929 15.2264 4.2175C15.2264 4.31571 15.1956 4.41144 15.1383 4.49117C15.0809 4.57091 15 4.63062 14.9069 4.66187C14.0569 4.9475 13.5569 5.22875 13.2163 5.58938C12.8775 5.94813 12.6513 6.43187 12.4444 7.22063C12.4179 7.3206 12.3591 7.40901 12.2771 7.47208C12.1952 7.53516 12.0947 7.56936 11.9913 7.56936C11.8878 7.56936 11.7873 7.53516 11.7054 7.47208C11.6234 7.40901 11.5646 7.3206 11.5381 7.22063C11.3313 6.43187 11.1044 5.94813 10.7656 5.58938C10.425 5.22875 9.92563 4.9475 9.075 4.66187C8.9819 4.63062 8.90097 4.57091 8.84363 4.49117C8.78629 4.41144 8.75544 4.31571 8.75544 4.2175C8.75544 4.11929 8.78629 4.02356 8.84363 3.94383C8.90097 3.86409 8.9819 3.80438 9.075 3.77312C9.92563 3.4875 10.425 3.20625 10.7656 2.84625C11.1044 2.4875 11.3313 2.00188 11.5375 1.21437ZM5.53251 3.82625C5.55878 3.72601 5.61752 3.63729 5.69957 3.57398C5.78161 3.51067 5.88231 3.47633 5.98594 3.47633C6.08957 3.47633 6.19028 3.51067 6.27232 3.57398C6.35436 3.63729 6.41311 3.72601 6.43938 3.82625C6.81125 5.25312 7.23313 6.185 7.89563 6.88875C8.55938 7.59438 9.51063 8.11813 11.04 8.63375C11.1331 8.66501 11.214 8.72472 11.2714 8.80445C11.3287 8.88419 11.3596 8.97991 11.3596 9.07812C11.3596 9.17633 11.3287 9.27206 11.2714 9.3518C11.214 9.43153 11.1331 9.49124 11.04 9.5225C9.51063 10.0375 8.55938 10.5619 7.89563 11.2675C7.23313 11.9712 6.81125 12.9031 6.43938 14.33C6.41311 14.4302 6.35436 14.519 6.27232 14.5823C6.19028 14.6456 6.08957 14.6799 5.98594 14.6799C5.88231 14.6799 5.78161 14.6456 5.69957 14.5823C5.61752 14.519 5.55878 14.4302 5.53251 14.33C5.16001 12.9031 4.73876 11.9712 4.07626 11.2675C3.41188 10.5619 2.46126 10.0375 0.931255 9.5225C0.838152 9.49124 0.757218 9.43153 0.69988 9.3518C0.642541 9.27206 0.611694 9.17633 0.611694 9.07812C0.611694 8.97991 0.642541 8.88419 0.69988 8.80445C0.757218 8.72472 0.838152 8.66501 0.931255 8.63375C2.46126 8.11813 3.41251 7.59438 4.07626 6.88875C4.73876 6.185 5.16001 5.25312 5.53251 3.82625ZM12.9388 10.1681C12.8355 10.1681 12.7351 10.2021 12.6532 10.2649C12.5712 10.3277 12.5123 10.4159 12.4856 10.5156C12.3356 11.0781 12.175 11.4038 11.9463 11.6406C11.715 11.8806 11.3675 12.0769 10.7444 12.2819C10.6506 12.3127 10.5689 12.3723 10.5111 12.4523C10.4532 12.5323 10.422 12.6285 10.422 12.7272C10.422 12.8259 10.4532 12.9221 10.5111 13.0021C10.5689 13.082 10.6506 13.1417 10.7444 13.1725C11.3675 13.3769 11.715 13.5731 11.9463 13.8131C12.175 14.0506 12.3356 14.3756 12.4856 14.9381C12.5121 15.0381 12.5709 15.1265 12.6529 15.1896C12.7348 15.2527 12.8353 15.2869 12.9388 15.2869C13.0422 15.2869 13.1427 15.2527 13.2246 15.1896C13.3066 15.1265 13.3654 15.0381 13.3919 14.9381C13.5419 14.3756 13.7019 14.0506 13.9306 13.8131C14.1619 13.5731 14.5094 13.3769 15.1325 13.1725C15.2263 13.1417 15.3079 13.082 15.3658 13.0021C15.4237 12.9221 15.4549 12.8259 15.4549 12.7272C15.4549 12.6285 15.4237 12.5323 15.3658 12.4523C15.3079 12.3723 15.2263 12.3127 15.1325 12.2819C14.5094 12.0769 14.1619 11.8806 13.9306 11.6406C13.7019 11.4038 13.5419 11.0781 13.3913 10.5156C13.3646 10.416 13.3058 10.3279 13.224 10.2651C13.1422 10.2023 13.0419 10.1682 12.9388 10.1681Z"/>
</g>
<defs>
<clipPath id="clip0_8303_1783">
<rect width="16" height="16" fill="white"/>
</clipPath>
</defs>
</svg>
