<svg width="8" height="13" viewBox="0 0 8 13" fill="none" xmlns="http://www.w3.org/2000/svg">
<g clip-path="url(#clip0_445_4507)">
<path d="M2.00058 12.6514C3.10436 12.6514 4.00018 11.7554 4.00018 10.6514V8.65137H2.00058C0.896797 8.65137 0.000976562 9.54737 0.000976562 10.6514C0.000976562 11.7554 0.896797 12.6514 2.00058 12.6514Z" fill="#0ACF83"/>
<path d="M0.000976562 6.65137C0.000976562 5.54737 0.896797 4.65137 2.00058 4.65137H4.00018V8.65137H2.00058C0.896797 8.65137 0.000976562 7.75537 0.000976562 6.65137Z" fill="#A259FF"/>
<path d="M0.000976562 2.65137C0.000976562 1.54737 0.896797 0.651367 2.00058 0.651367H4.00018V4.65137H2.00058C0.896797 4.65137 0.000976562 3.75537 0.000976562 2.65137Z" fill="#F24E1E"/>
<path d="M4 0.651367H5.9996C7.10338 0.651367 7.9992 1.54737 7.9992 2.65137C7.9992 3.75537 7.10338 4.65137 5.9996 4.65137H4V0.651367Z" fill="#FF7262"/>
<path d="M7.9992 6.65137C7.9992 7.75537 7.10338 8.65137 5.9996 8.65137C4.89582 8.65137 4 7.75537 4 6.65137C4 5.54737 4.89582 4.65137 5.9996 4.65137C7.10338 4.65137 7.9992 5.54737 7.9992 6.65137Z" fill="#1ABCFE"/>
</g>
<defs>
<clipPath id="clip0_445_4507">
<rect width="8" height="12" fill="white" transform="translate(0 0.651367)"/>
</clipPath>
</defs>
</svg>
