<svg width="16" height="16" viewBox="0 0 16 16" fill="#3C3F44" xmlns="http://www.w3.org/2000/svg">
<path d="M14.9303 4.08321C14.2317 2.84437 13.2274 1.81546 12.0183 1.09963C10.8008 0.368943 9.4131 -0.0109208 8.00214 0.000240958C6.59101 -0.0109653 5.20316 0.368898 3.98548 1.09963C2.77632 1.81544 1.77207 2.84436 1.07342 4.08321C0.360269 5.33063 -0.0104867 6.75237 0.000380942 8.19798C-0.0163656 9.93184 0.519445 11.624 1.52649 13.0175C2.49935 14.4096 3.88105 15.4465 5.46986 15.977C5.53967 15.999 5.61355 16.004 5.68555 15.9914C5.75756 15.9788 5.82568 15.9491 5.88442 15.9047C5.92816 15.8645 5.96291 15.815 5.98626 15.7598C6.00962 15.7046 6.02105 15.6448 6.01976 15.5846C6.01976 15.5634 6.01797 15.3712 6.01441 15.008C6.01084 14.6449 6.00906 14.3283 6.00906 14.0583L5.76942 14.1005C5.57826 14.1316 5.38464 14.1441 5.19118 14.1377C4.94816 14.1334 4.70591 14.1085 4.4669 14.0632C4.2126 14.0152 3.97323 13.9054 3.76884 13.7431C3.55427 13.5768 3.39434 13.3474 3.31042 13.0855L3.20986 12.8438C3.12226 12.6496 3.01216 12.4669 2.88196 12.2996C2.7652 12.1288 2.60972 11.9896 2.42889 11.894L2.35614 11.8392C2.30615 11.8022 2.2607 11.7592 2.2208 11.711C2.18236 11.6663 2.15079 11.6158 2.12719 11.5614C2.10615 11.5113 2.12399 11.4704 2.18069 11.4386C2.27655 11.3992 2.37994 11.3829 2.48291 11.3909L2.69099 11.4227C2.87715 11.4738 3.05214 11.5606 3.20665 11.6786C3.41334 11.8229 3.58603 12.0126 3.71214 12.2338C3.84943 12.4993 4.04679 12.7273 4.28771 12.8986C4.48776 13.0432 4.72547 13.1232 4.97026 13.1282C5.16947 13.1305 5.36839 13.1121 5.56401 13.0734C5.72587 13.0394 5.88318 12.9857 6.03259 12.9134C6.06704 12.4957 6.24839 12.105 6.5429 11.814C6.18204 11.7778 5.82439 11.7135 5.47307 11.6216C5.13091 11.5252 4.80188 11.3853 4.49365 11.2051C4.17131 11.0261 3.88635 10.784 3.65491 10.4927C3.40719 10.1566 3.22189 9.77665 3.10822 9.3719C2.95786 8.85235 2.88571 8.31234 2.89426 7.7705C2.87711 6.95541 3.17268 6.16595 3.71749 5.57172C3.46142 4.86434 3.48756 4.0821 3.79024 3.39432C4.09626 3.34367 4.41007 3.39416 4.68622 3.53845C4.98595 3.65252 5.27673 3.78994 5.55599 3.94949C5.74 4.06312 5.88763 4.15921 5.99889 4.23777C7.30816 3.86778 8.69077 3.86778 10 4.23777L10.3959 3.98183C10.7002 3.79453 11.0211 3.63726 11.3544 3.51215C11.6164 3.38181 11.9122 3.34071 12.1985 3.39486C12.3515 3.73436 12.4376 4.10146 12.4518 4.4751C12.466 4.84874 12.4081 5.22159 12.2814 5.57227C12.8266 6.16635 13.1226 6.95581 13.1057 7.77104C13.1139 8.31448 13.0417 8.85605 12.8918 9.37738C12.7794 9.78368 12.592 10.1641 12.3398 10.4981C12.1048 10.7881 11.8184 11.0299 11.4957 11.2106C11.1874 11.3907 10.8584 11.5306 10.5162 11.6271C10.1649 11.719 9.80727 11.7833 9.44641 11.8195C9.63976 12.016 9.78854 12.2536 9.88218 12.5156C9.97583 12.7776 10.012 13.0575 9.98827 13.3354V15.584C9.98686 15.6438 9.99775 15.7032 10.0202 15.7583C10.0427 15.8135 10.0763 15.8632 10.1188 15.9041C10.1765 15.9495 10.244 15.9799 10.3156 15.9929C10.3872 16.0059 10.4608 16.001 10.5301 15.9786C12.119 15.4482 13.5007 14.4113 14.4735 13.0192C15.4805 11.6256 16.0163 9.93346 15.9996 8.19962C16.0116 6.75385 15.6422 5.33162 14.9303 4.08321V4.08321Z"/>
</svg>
