<svg xmlns="http://www.w3.org/2000/svg" fill="#662F9D" class="icon-details" viewBox="0 0 24 24" id="Button-Controller-Grid-All--Streamline-Ultimate"><desc>Button Controller Grid All Streamline Icon: https://streamlinehq.com</desc><path fill="#662F9D" fill-rule="evenodd" d="M7.5 4.625c0 -2.48528 2.01472 -4.5 4.5 -4.5 2.4853 0 4.5 2.01472 4.5 4.5s-2.0147 4.5 -4.5 4.5c-2.48528 0 -4.5 -2.01472 -4.5 -4.5ZM4.625 7.5c-2.48528 0 -4.5 2.01472 -4.5 4.5 0 2.4853 2.01472 4.5 4.5 4.5s4.5 -2.0147 4.5 -4.5c0 -2.48528 -2.01472 -4.5 -4.5 -4.5Zm10.25 4.5c0 -2.48528 2.0147 -4.5 4.5 -4.5s4.5 2.01472 4.5 4.5c0 2.4853 -2.0147 4.5 -4.5 4.5s-4.5 -2.0147 -4.5 -4.5Zm-2.8672 2.875c-2.48527 0 -4.49999 2.0147 -4.49999 4.5s2.01472 4.5 4.49999 4.5c2.4853 0 4.5 -2.0147 4.5 -4.5s-2.0147 -4.5 -4.5 -4.5Z" clip-rule="evenodd" stroke-width="1"></path></svg>