<svg xmlns="http://www.w3.org/2000/svg" viewBox="0 0 16 16" height="16" width="16" fill="#A05C1C" class="icon-consistent"><desc>Photo Tilt Shift Streamline Icon: https://streamlinehq.com</desc><g><path d="M8 2.7133333333333334a5.333333333333333 5.333333333333333 0 1 0 5.333333333333333 5.333333333333333 5.333333333333333 5.333333333333333 0 0 0 -5.333333333333333 -5.333333333333333Zm0 9.333333333333332a4 4 0 1 1 4 -4 4 4 0 0 1 -4 4Z"  stroke-width="0.6667"></path><path d="M6.006666666666666 8.046666666666667a2 2 0 1 0 4 0 2 2 0 1 0 -4 0"   stroke-width="0.6667"></path><path d="m6.053333333333333 1.5866666666666664 0.17333333333333334 0A6.666666666666666 6.666666666666666 0 0 1 7.373333333333333 1.3333333333333333a0.6666666666666666 0.6666666666666666 0 0 0 -0.12666666666666665 -1.3333333333333333 8.733333333333333 8.733333333333333 0 0 0 -1.3733333333333333 0.27999999999999997 0.6666666666666666 0.6666666666666666 0 0 0 0.18 1.3333333333333333Z"   stroke-width="0.6667"></path><path d="M2.26 4.086666666666666a0.6666666666666666 0.6666666666666666 0 0 0 0.5266666666666666 -0.2533333333333333 6.786666666666666 6.786666666666666 0 0 1 0.7999999999999999 -0.84 0.6666666666666666 0.6666666666666666 0 0 0 0.06 -0.94A0.6666666666666666 0.6666666666666666 0 0 0 2.706666666666666 2a8.626666666666665 8.626666666666665 0 0 0 -0.9666666666666666 1 0.6666666666666666 0.6666666666666666 0 0 0 0.10666666666666666 0.94 0.6666666666666666 0.6666666666666666 0 0 0 0.41333333333333333 0.14666666666666667Z"   stroke-width="0.6667"></path><path d="M0.6666666666666666 8.333333333333332a0.6666666666666666 0.6666666666666666 0 0 0 0.6666666666666666 -0.6333333333333333 6.753333333333334 6.753333333333334 0 0 1 0.15333333333333332 -1.1533333333333333 0.6666666666666666 0.6666666666666666 0 0 0 -0.5 -0.7999999999999999 0.6666666666666666 0.6666666666666666 0 0 0 -0.7999999999999999 0.5066666666666666A8.079999999999998 8.079999999999998 0 0 0 0 7.633333333333333a0.6666666666666666 0.6666666666666666 0 0 0 0.6666666666666666 0.7Z"   stroke-width="0.6667"></path><path d="M1.8733333333333333 10.666666666666666a0.6666666666666666 0.6666666666666666 0 1 0 -1.22 0.5333333333333333 7.76 7.76 0 0 0 0.6666666666666666 1.2266666666666666 0.6666666666666666 0.6666666666666666 0 1 0 1.1133333333333333 -0.7333333333333334A6.886666666666667 6.886666666666667 0 0 1 1.8733333333333333 10.666666666666666Z"   stroke-width="0.6667"></path><path d="M5.653333333333333 14.246666666666666a6.126666666666666 6.126666666666666 0 0 1 -1.0533333333333332 -0.5066666666666666 0.6666666666666666 0.6666666666666666 0 0 0 -0.6666666666666666 1.1533333333333333 8.373333333333333 8.373333333333333 0 0 0 1.2599999999999998 0.6 0.6066666666666667 0.6066666666666667 0 0 0 0.2333333333333333 0.04666666666666667 0.6666666666666666 0.6666666666666666 0 0 0 0.24 -1.2933333333333332Z"   stroke-width="0.6667"></path><path d="M9.773333333333333 14.433333333333332a6.666666666666666 6.666666666666666 0 0 1 -1.1466666666666665 0.20666666666666667A0.6666666666666666 0.6666666666666666 0 0 0 8.666666666666666 16h0.06666666666666667a8.733333333333333 8.733333333333333 0 0 0 1.3733333333333333 -0.2533333333333333 0.6666666666666666 0.6666666666666666 0 0 0 -0.35333333333333333 -1.2866666666666666Z"   stroke-width="0.6667"></path><path d="M13.213333333333333 12.166666666666666a6.786666666666666 6.786666666666666 0 0 1 -0.7999999999999999 0.84 0.6666666666666666 0.6666666666666666 0 0 0 -0.06 0.94 0.6666666666666666 0.6666666666666666 0 0 0 0.5 0.22666666666666668 0.6666666666666666 0.6666666666666666 0 0 0 0.44 -0.16666666666666666 8.626666666666665 8.626666666666665 0 0 0 0.9666666666666666 -1.0066666666666666 0.6666666666666666 0.6666666666666666 0 0 0 -0.10666666666666666 -0.94 0.6666666666666666 0.6666666666666666 0 0 0 -0.94 0.10666666666666666Z"   stroke-width="0.6667"></path><path d="M15.366666666666667 7.666666666666666a0.6666666666666666 0.6666666666666666 0 0 0 -0.7 0.6333333333333333 6.666666666666666 6.666666666666666 0 0 1 -0.15333333333333332 1.1533333333333333 0.6666666666666666 0.6666666666666666 0 0 0 0.5 0.7999999999999999 0.5733333333333333 0.5733333333333333 0 0 0 0.14666666666666667 0 0.6666666666666666 0.6666666666666666 0 0 0 0.6666666666666666 -0.52 8.079999999999998 8.079999999999998 0 0 0 0.17333333333333334 -1.3666666666666665 0.6666666666666666 0.6666666666666666 0 0 0 -0.6333333333333333 -0.7Z"   stroke-width="0.6667"></path><path d="M14.126666666666667 5.333333333333333a0.6666666666666666 0.6666666666666666 0 0 0 0.6066666666666667 0.39999999999999997 0.7333333333333334 0.7333333333333334 0 0 0 0.26666666666666666 -0.05333333333333333 0.6666666666666666 0.6666666666666666 0 0 0 0.3333333333333333 -0.86 7.76 7.76 0 0 0 -0.6666666666666666 -1.2266666666666666 0.6666666666666666 0.6666666666666666 0 1 0 -1.1133333333333333 0.7333333333333334A6.326666666666666 6.326666666666666 0 0 1 14.126666666666667 5.333333333333333Z"   stroke-width="0.6667"></path><path d="M10.346666666666666 1.7533333333333332a6.666666666666666 6.666666666666666 0 0 1 1.0533333333333332 0.5066666666666666 0.6666666666666666 0.6666666666666666 0 0 0 0.3333333333333333 0.09333333333333334 0.6666666666666666 0.6666666666666666 0 0 0 0.3466666666666667 -1.2466666666666666 8.373333333333333 8.373333333333333 0 0 0 -1.2599999999999998 -0.6 0.6666666666666666 0.6666666666666666 0 0 0 -0.86 0.3866666666666666 0.6666666666666666 0.6666666666666666 0 0 0 0.3866666666666666 0.86Z" stroke-width="0.6667"></path></g></svg>