<svg width="16" height="16" viewBox="0 0 16 16" fill="none" xmlns="http://www.w3.org/2000/svg">
<path d="M5.20657e-05 9.12968L0.0400519 3.31245C0.0470519 2.25935 0.806549 1.35656 1.85505 1.15535L7.64853 0.0416481C9.04052 -0.225989 10.3325 0.830499 10.3235 2.22832L10.2835 8.04652C10.276 9.09913 9.51652 10.0014 8.46802 10.2031L2.67454 11.3168C1.28255 11.5845 -0.0094479 10.528 5.20657e-05 9.12968Z" fill="#111827" fill-opacity="0.2"/>
<path d="M2.83849 11.4507L2.87849 5.6325C2.88499 4.58038 3.64499 3.67807 4.69348 3.47637L10.487 2.36316C11.879 2.09552 13.171 3.15152 13.1615 4.54983L13.1215 10.368C13.1145 11.4206 12.355 12.3229 11.3065 12.5246L5.51298 13.6383C4.12099 13.9055 2.82899 12.8495 2.83849 11.4517V11.4507Z" fill="#111827" fill-opacity="0.5"/>
<path d="M5.67698 13.7717L5.71698 7.95348C5.72398 6.90038 6.48348 5.99856 7.53197 5.79687L13.3255 4.68317C14.7175 4.41553 16.0094 5.47202 15.9999 6.86984L15.9599 12.688C15.9529 13.7411 15.1935 14.6434 14.145 14.8447L8.35147 15.9584C6.95948 16.226 5.66748 15.1695 5.67648 13.7717H5.67698Z" fill="#111827" fill-opacity="0.8"/>
</svg>
