<svg width="16" height="16" viewBox="0 0 16 16" fill="#3C3F44" xmlns="http://www.w3.org/2000/svg">
<path d="M16 9.81076V16H12.5708V10.2253C12.5708 8.77499 12.0749 7.78456 10.8336 7.78456C10.4402 7.79254 10.0591 7.92327 9.74366 8.15846C9.42823 8.39365 9.19421 8.72153 9.07434 9.09625C8.98598 9.37917 8.94741 9.67528 8.96034 9.97139V15.9993H5.52984C5.52984 15.9993 5.57584 6.21892 5.52984 5.20582H8.96034V6.7388C8.95368 6.75013 8.94434 6.76279 8.93768 6.77345H8.96034V6.7368C9.25836 6.18119 9.70565 5.71984 10.2518 5.40472C10.798 5.08959 11.4213 4.93321 12.0515 4.95321C14.3081 4.95321 16 6.49685 16 9.81076ZM1.94202 0.00367639C1.68942 -0.0123753 1.43625 0.0242544 1.19857 0.111239C0.960886 0.198225 0.743888 0.333665 0.561348 0.508964C0.378808 0.684264 0.234714 0.895592 0.138212 1.12953C0.0417102 1.36348 -0.00509161 1.61492 0.000777713 1.86791C-0.00652926 2.11742 0.0377185 2.36575 0.130755 2.59738C0.223792 2.82901 0.363617 3.03896 0.541491 3.21412C0.719365 3.38927 0.931462 3.52585 1.16453 3.61533C1.39759 3.70481 1.64661 3.74526 1.89602 3.73415H1.91868C2.17132 3.74993 2.42448 3.71303 2.66209 3.6258C2.89971 3.53857 3.1166 3.40292 3.299 3.22744C3.4814 3.05197 3.62534 2.8405 3.72167 2.60646C3.818 2.37243 3.86463 2.12092 3.85859 1.86791C3.86521 1.61685 3.81976 1.36714 3.7251 1.1345C3.63044 0.901867 3.48862 0.691354 3.30857 0.516222C3.12852 0.341091 2.91415 0.205136 2.67896 0.116924C2.44376 0.0287117 2.19285 -0.00984736 1.94202 0.00367639V0.00367639ZM0.204768 16H3.63327V5.20648H0.204768V16Z"/>
</svg>
