<svg width="13" height="12" viewBox="0 0 13 12" fill="none" xmlns="http://www.w3.org/2000/svg">
<g clip-path="url(#clip0_445_4513)">
<path d="M12.4476 5.65156V10.6483C12.4476 10.9261 12.2187 11.1516 11.9369 11.1516H3.74898C3.46712 11.1516 3.23828 10.9261 3.23828 10.6483V5.65156L7.98247 5.10156L12.4476 5.65156Z" fill="#036C70"/>
<path d="M3.74898 0.151367H11.9369C12.2187 0.151367 12.4476 0.376867 12.4476 0.654617V5.65137H3.23828V0.654617C3.23828 0.376867 3.46712 0.151367 3.74898 0.151367Z" fill="#37C6D0"/>
<path d="M8.26074 7.02637H11.0514V9.77637H8.26074V7.02637Z" fill="#1A9BA1"/>
<path d="M9.65684 4.55146C10.5816 4.55146 11.3313 3.81273 11.3313 2.90146C11.3313 1.99019 10.5816 1.25146 9.65684 1.25146C8.73208 1.25146 7.98242 1.99019 7.98242 2.90146C7.98242 3.81273 8.73208 4.55146 9.65684 4.55146Z" fill="#1A9BA1"/>
<path d="M9.65655 3.72617C10.1189 3.72617 10.4938 3.35681 10.4938 2.90117C10.4938 2.44554 10.1189 2.07617 9.65655 2.07617C9.19417 2.07617 8.81934 2.44554 8.81934 2.90117C8.81934 3.35681 9.19417 3.72617 9.65655 3.72617Z" fill="#036C70"/>
<path opacity="0.1" d="M6.63456 2.35156H3.23828V9.22656H6.63456C6.91642 9.22656 7.14526 9.00106 7.14526 8.72331V2.85481C7.14526 2.57706 6.91642 2.35156 6.63456 2.35156Z" fill="black"/>
<path opacity="0.2" d="M6.35549 2.62646H3.23828V9.50146H6.35549C6.63735 9.50146 6.86619 9.27597 6.86619 8.99822V3.12971C6.86619 2.85196 6.63735 2.62646 6.35549 2.62646Z" fill="black"/>
<path opacity="0.2" d="M6.35549 2.62646H3.23828V8.95146H6.35549C6.63735 8.95146 6.86619 8.72597 6.86619 8.44822V3.12971C6.86619 2.85196 6.63735 2.62646 6.35549 2.62646Z" fill="black"/>
<path opacity="0.2" d="M6.07642 2.62646H3.23828V8.95146H6.07642C6.35828 8.95146 6.58712 8.72597 6.58712 8.44822V3.12971C6.58712 2.85196 6.35828 2.62646 6.07642 2.62646Z" fill="black"/>
<path d="M0.957963 2.62646H6.07331C6.35517 2.62646 6.58401 2.85196 6.58401 3.12971V8.17046C6.58401 8.44821 6.35517 8.67371 6.07331 8.67371H0.957963C0.676103 8.67646 0.447266 8.45097 0.447266 8.17322V3.12971C0.447266 2.85196 0.676103 2.62646 0.957963 2.62646Z" fill="url(#paint0_linear_445_4513)"/>
<path d="M4.55215 4.54571H3.11215V5.43946H4.45447V5.97021H3.11215V7.29021H2.46191V4.01221H4.55494L4.55215 4.54571Z" fill="white"/>
</g>
<defs>
<linearGradient id="paint0_linear_445_4513" x1="1.51383" y1="2.23259" x2="5.43261" y2="9.1202" gradientUnits="userSpaceOnUse">
<stop stop-color="#058F92"/>
<stop offset="0.5" stop-color="#038489"/>
<stop offset="1" stop-color="#026D71"/>
</linearGradient>
<clipPath id="clip0_445_4513">
<rect width="12" height="11" fill="white" transform="translate(0.447266 0.151367)"/>
</clipPath>
</defs>
</svg>
