<svg xmlns="http://www.w3.org/2000/svg" fill="#1E50C0" viewBox="0 0 16 16" id="Day-Time-Running-Light--Streamline-Ultimate" height="16" width="16"><desc>Day Time Running Light Streamline Icon: https://streamlinehq.com</desc><path  fill-rule="evenodd" d="M3.466673333333333 4.333333333333333c0 -0.73638 0.5969533333333332 -1.3333333333333333 1.3333333333333333 -1.3333333333333333s1.3333333333333333 0.5969533333333332 1.3333333333333333 1.3333333333333333 -0.5969533333333332 1.3333333333333333 -1.3333333333333333 1.3333333333333333 -1.3333333333333333 -0.5969533333333332 -1.3333333333333333 -1.3333333333333333Zm0 3.6666666666666665c0 -0.7363999999999999 0.5969533333333332 -1.3333333333333333 1.3333333333333333 -1.3333333333333333s1.3333333333333333 0.5969333333333333 1.3333333333333333 1.3333333333333333 -0.5969533333333332 1.3333333333333333 -1.3333333333333333 1.3333333333333333 -1.3333333333333333 -0.5969333333333333 -1.3333333333333333 -1.3333333333333333ZM1 8.833333333333332C0.5397626666666666 8.833333333333332 0.16666666666666666 8.460266666666666 0.16666666666666666 8s0.373096 -0.8333333333333333 0.8333333333333333 -0.8333333333333333c0.46024 0 0.8333333333333333 0.37306666666666666 0.8333333333333333 0.8333333333333333s-0.37309333333333333 0.8333333333333333 -0.8333333333333333 0.8333333333333333Zm0 -3.6666666666666665C0.5397626666666666 5.166666666666666 0.16666666666666666 4.793573333333333 0.16666666666666666 4.333333333333333S0.5397626666666666 3.5 1 3.5c0.46024 0 0.8333333333333333 0.37309333333333333 0.8333333333333333 0.8333333333333333S1.46024 5.166666666666666 1 5.166666666666666Zm2.466673333333333 6.5c0 -0.7363999999999999 0.5969533333333332 -1.3333333333333333 1.3333333333333333 -1.3333333333333333s1.3333333333333333 0.5969333333333333 1.3333333333333333 1.3333333333333333 -0.5969533333333332 1.3333333333333333 -1.3333333333333333 1.3333333333333333 -1.3333333333333333 -0.5969333333333333 -1.3333333333333333 -1.3333333333333333ZM1 12.5c-0.4602373333333333 0 -0.8333333333333333 -0.37306666666666666 -0.8333333333333333 -0.8333333333333333s0.373096 -0.8333333333333333 0.8333333333333333 -0.8333333333333333c0.46024 0 0.8333333333333333 0.37306666666666666 0.8333333333333333 0.8333333333333333s-0.37309333333333333 0.8333333333333333 -0.8333333333333333 0.8333333333333333Zm7.133333333333333 -0.3666666666666667c-0.19999999999999998 -1.2666666666666666 -0.26666666666666666 -2.6666666666666665 -0.26666666666666666 -4.133333333333333s0.06666666666666667 -2.8666733333333334 0.26666666666666666 -4.13334c0.06666666666666667 -0.26666666666666666 0.26666666666666666 -0.46665999999999996 0.5333333333333333 -0.5333266666666666h0.6666666666666666c1.1333333333333333 0 2.1333333333333333 0.20001333333333332 3.0666666666666664 0.6000133333333333C14.333333333333332 4.733346666666666 15.666666666666666 6.266666666666667 15.666666666666666 8c0 1.7333333333333334 -1.3333333333333333 3.2666666666666666 -3.2666666666666666 4.066666666666666 -0.9333333333333332 0.39999999999999997 -1.9333333333333331 0.6 -3.0666666666666664 0.6h-0.6666666666666666c-0.26666666666666666 -0.06666666666666667 -0.4666666666666666 -0.26666666666666666 -0.5333333333333333 -0.5333333333333333Z" clip-rule="evenodd" stroke-width="0.6667"></path></svg>