<svg width="16" height="13" viewBox="0 0 16 13" fill="#3C3F44" xmlns="http://www.w3.org/2000/svg">
<path d="M14.362 3.23632C14.3717 3.37736 14.3717 3.5184 14.3717 3.66074C14.3717 7.99792 11.0697 13 5.03173 13V12.9974C3.2481 13 1.50152 12.4891 0 11.5259C0.259354 11.5571 0.520008 11.5727 0.781312 11.5733C2.25944 11.5746 3.69531 11.0787 4.85818 10.1655C3.4535 10.1389 2.22173 9.22309 1.79143 7.88612C2.28349 7.98102 2.79049 7.96152 3.27345 7.82958C1.74203 7.5202 0.64026 6.17478 0.64026 4.61228V4.57068C1.09657 4.82482 1.60748 4.96586 2.13008 4.98146C0.687711 4.01757 0.243104 2.09889 1.11412 0.598783C2.78074 2.6494 5.23973 3.89602 7.87942 4.02797C7.61487 2.88794 7.97628 1.69331 8.82909 0.891914C10.1512 -0.350807 12.2306 -0.287111 13.4734 1.03426C14.2086 0.889314 14.9132 0.619582 15.558 0.237406C15.3129 0.997208 14.8001 1.64262 14.115 2.05274C14.7656 1.97605 15.4013 1.80186 16 1.53602C15.5593 2.19638 15.0042 2.7716 14.362 3.23632Z"/>
</svg>
